<svg width="99" height="130" viewBox="0 0 99 130" fill="none" xmlns="http://www.w3.org/2000/svg">
<path fill-rule="evenodd" clip-rule="evenodd" d="M60.0845 50.8276C71.8873 50.8276 79.425 39.4099 80.338 30.2932C86.8363 28.7499 93.0399 15.0774 87.4779 16.3019C84.8373 16.8563 83.269 14.5136 80.708 10.3042C77.9083 5.71584 74.4249 0 67.4864 0C63.1838 0 60.815 1.08123 59.6398 1.88985C57.8842 1.57564 54.045 1.32153 50.7163 4.0847C47.336 6.88946 45.5429 11.8982 45.3275 18.9355C44.4052 19.6379 43.6653 20.8947 43.2252 22.5766C42.3825 25.7741 42.7383 30.0622 45.3086 32.5435C45.6129 39.4099 48.9558 50.8276 60.0845 50.8276ZM60.0845 46.7614C49.1618 46.7614 48.9886 32.1323 48.9886 31.5131C48.9839 30.8154 48.6562 30.1639 48.1225 29.7942C46.0765 28.3803 46.1841 23.815 47.3452 22.3688C51.0064 22.4797 50.056 24.8963 52.1862 24.3418C55.5384 23.4639 58.2539 21.1582 59.8784 19.467C62.3504 22.9464 68.0623 29.4846 76.5926 30.3949C75.6656 37.0857 70.1504 46.7614 60.0845 46.7614ZM52.912 7.35619C55.8147 4.9257 59.5462 6.01618 59.579 6.0208C61.4142 6.59839 60.9693 4.06623 67.4864 4.06623C72.4491 4.06623 74.9679 8.19714 77.6319 12.5729C79.5982 15.7936 81.78 19.3376 85.0807 20.234C83.9055 22.817 81.7097 26.4303 78.5823 26.4303C68.0061 26.4303 61.7278 15.3222 61.667 15.2113C60.9834 13.9775 59.415 13.9268 58.6331 14.9988C58.605 15.0404 55.9553 18.6537 52.2988 20.0722C51.6152 19.4669 50.5524 18.8108 49.0355 18.4966C49.2695 13.0765 50.5664 9.3246 52.912 7.35619Z" fill="#01457A"/>
<path fill-rule="evenodd" clip-rule="evenodd" d="M94.6558 59.5979C92.2821 55.2961 81.1486 47.2791 79.4444 46.4243C78.4332 45.9206 77.2018 46.3226 76.6915 47.3207C76.1811 48.3188 76.5837 49.5386 77.595 50.0422C79.2196 50.8601 89.3417 58.4288 91.0552 61.5385C92.1602 63.5532 93.7943 79.0279 94.8009 93.4121C91.5986 94.2715 83.8733 95.9119 77.7916 93.8649C80.8114 86.6936 83.2134 80.8669 84.632 72.9332C84.8287 71.8335 84.0841 70.7753 82.9698 70.5812C81.8368 70.3872 80.7927 71.1219 80.596 72.2263C79.2149 79.9428 76.7805 85.7279 74.2008 91.8549C72.5388 95.7964 70.8581 99.8025 69.4676 104.363C69.4629 104.377 69.4581 104.386 69.4581 104.395C67.5714 110.592 66.2277 117.819 66.2277 127.351C66.2277 128.469 67.1452 129.38 68.2782 129.38C69.4112 129.38 70.3243 128.469 70.3243 127.351C70.3243 123.992 70.5023 120.961 70.8066 118.16C71.5885 123.497 72.3561 127.457 72.4123 127.735C72.5995 128.705 73.4565 129.38 74.4163 129.38C74.5474 129.38 74.6784 129.366 74.8095 129.343C75.9191 129.13 76.6448 128.067 76.4294 126.968C76.406 126.852 74.2055 115.518 73.4704 105.25C74.2991 102.575 75.2448 100.07 76.2374 97.6076C78.9341 98.5549 81.8227 98.9199 84.5943 98.9199C91.3034 98.9199 97.2446 96.9377 97.6145 96.8129C98.49 96.5172 99.0567 95.6716 98.9958 94.7613C98.654 89.5769 96.8141 63.5255 94.6558 59.5979Z" fill="#01457A"/>
<path fill-rule="evenodd" clip-rule="evenodd" d="M70.909 76.1492C70.909 73.0949 68.5634 70.0083 63.3151 70.0083C57.0742 70.0083 37.9491 79.0464 26.8064 84.5912C27.1107 83.6994 27.3775 82.8862 27.5788 82.2439C29.1846 81.9389 28.6228 81.2457 36.4929 66.9308C37.743 64.5789 34.4424 62.5413 33.197 64.8978L26.1463 78.21C17.8782 78.0713 11.1129 72.0599 8.71578 69.634C13.0652 61.0765 24.1892 42.6122 33.197 41.3276C38.6841 40.5467 41.8724 41.7204 41.9146 41.7388C42.8977 42.1131 43.9791 41.5726 44.3349 40.5191C44.6954 39.4563 44.1946 38.278 43.2068 37.8899C43.0476 37.8252 39.1991 36.342 32.6961 37.2707C19.3014 39.1791 5.28396 67.8412 4.69406 69.0611C4.32419 69.8189 4.43197 70.7476 4.97038 71.3806C5.32152 71.8011 12.9247 80.6914 23.6039 82.1053C23.0936 83.6394 22.3961 85.6169 21.6845 87.1695C20.3174 87.8672 19.3201 88.3848 18.8332 88.639C17.8922 89.1287 17.4943 90.3531 17.9531 91.3697C18.4072 92.3862 19.5354 92.816 20.4858 92.3216C30.2146 87.2574 56.8635 74.1021 63.3151 74.1021C65.0708 74.1021 67.1122 74.6382 67.1122 76.1492C67.1122 87.6455 20.631 107.246 13.9688 107.246C9.26359 107.246 4.4786 100.759 4.4786 97.1363C4.4786 93.1995 6.55268 86.7999 7.79336 82.9739C7.80272 82.7614 9.2215 80.0351 6.99296 79.2034C4.77378 78.3809 4.3429 81.4214 4.20713 81.6247C2.89154 85.6909 0.681763 92.5018 0.681763 97.1363C0.681763 103.042 6.90858 110.883 13.435 111.299C12.9341 115.166 12.068 122.532 12.068 127.333C12.068 128.465 12.9201 129.38 13.9688 129.38C15.0175 129.38 15.8648 128.465 15.8648 127.333C15.8648 122.319 16.909 113.979 17.3445 110.726C30.5097 107.311 70.909 90.0251 70.909 76.1492Z" fill="#01457A"/>
<path fill-rule="evenodd" clip-rule="evenodd" d="M92.1219 116.386V103.651C92.1219 102.552 91.5694 101.655 90.8812 101.655C90.193 101.655 89.6359 102.552 89.6359 103.651V116.386C89.6359 121.196 91.8596 128.021 91.9579 128.307C92.721 130.632 94.9311 128.793 94.1539 126.441C93.5921 124.722 92.1219 119.565 92.1219 116.386Z" fill="#01457A"/>
<path fill-rule="evenodd" clip-rule="evenodd" d="M55.4309 68.9363C57.6548 67.4854 60.8199 67.0141 63.6898 67.7026C64.6964 67.9475 65.7827 67.5685 66.1245 66.8616C66.4662 66.1546 65.9325 65.3876 64.9306 65.1473C60.7216 64.1354 56.0911 64.8284 52.8325 66.9539C50.9411 68.1877 53.6003 70.1284 55.4309 68.9363Z" fill="#01457A"/>
<path fill-rule="evenodd" clip-rule="evenodd" d="M63.8161 92.9269C62.669 94.4194 60.5248 95.0479 58.6193 94.4518C57.9264 94.2346 57.1726 94.5627 56.9385 95.1818C56.695 95.7964 57.0649 96.4711 57.7532 96.6836C58.5163 96.9193 59.3075 97.0347 60.0847 97.0347C62.3975 97.0347 64.6355 96.032 65.9932 94.2623C66.4099 93.7217 66.2553 92.987 65.656 92.6174C65.0521 92.2524 64.2281 92.3909 63.8161 92.9269Z" fill="#01457A"/>
<path fill-rule="evenodd" clip-rule="evenodd" d="M70.408 97.7876C69.687 96.8542 68.4556 96.7757 67.6551 97.6213C62.8562 102.649 55.8382 103.106 50.5852 98.7349C49.7097 98.0094 48.4924 98.2451 47.8651 99.2662C47.2377 100.283 47.4391 101.701 48.3146 102.431C51.4092 105.005 54.9815 106.276 58.5303 106.276C62.7346 106.276 66.92 104.497 70.2629 100.994C71.0635 100.158 71.129 98.721 70.408 97.7876Z" fill="#01457A"/>
<path fill-rule="evenodd" clip-rule="evenodd" d="M56.8589 57.3937C56.784 56.2293 55.9785 55.3561 55.0889 55.4578C49.8687 56.0122 45.234 60.1616 42.9961 66.284C42.0644 68.8346 45.0373 70.6135 45.9596 68.0906C47.7013 63.3313 51.3016 60.1061 55.3607 59.6718C56.2596 59.5794 56.9291 58.5581 56.8589 57.3937Z" fill="#01457A"/>
</svg>
